<svg width="30" height="31" viewBox="0 0 30 31" fill="none" xmlns="http://www.w3.org/2000/svg">
<path fill-rule="evenodd" clip-rule="evenodd" d="M27.1323 24.91C27.2636 24.9021 27.3952 24.9202 27.5196 24.9632C27.6439 25.0062 27.7586 25.0732 27.857 25.1605C27.9554 25.2478 28.0357 25.3536 28.0932 25.4719C28.1508 25.5902 28.1844 25.7187 28.1923 25.85C28.2002 25.9813 28.1821 26.1129 28.1392 26.2373C28.0962 26.3616 28.0291 26.4763 27.9418 26.5747C27.8546 26.6731 27.7487 26.7534 27.6304 26.8109C27.5121 26.8685 27.3836 26.9021 27.2523 26.91H20.3523C20.0871 26.9246 19.8269 26.8332 19.6291 26.656C19.4312 26.4788 19.3119 26.2302 19.2973 25.965C19.2827 25.6998 19.3741 25.4397 19.5513 25.2418C19.7285 25.0439 19.9771 24.9246 20.2423 24.91H27.1323ZM21.4823 3.88002L21.6523 4.02002L21.8123 4.17002L25.5723 7.93002C26.2962 8.65354 26.7152 9.62703 26.7431 10.6501C26.771 11.6732 26.4057 12.6681 25.7223 13.43L25.5723 13.59L14.2523 24.91H16.2923C16.5395 24.9085 16.7785 24.9986 16.9632 25.163C17.1479 25.3274 17.2651 25.5543 17.2923 25.8V25.91C17.2941 26.1557 17.2054 26.3934 17.0431 26.5779C16.8807 26.7623 16.6562 26.8805 16.4123 26.91H6.52231C5.79439 26.9117 5.09068 26.6487 4.54231 26.17L4.40231 26.03L2.17231 23.81C1.44841 23.0865 1.02939 22.113 1.00149 21.0899C0.973585 20.0668 1.33892 19.0719 2.02231 18.31L2.17231 18.15L16.1523 4.17002C16.8492 3.47393 17.7784 3.05942 18.7619 3.00591C19.7454 2.9524 20.714 3.26364 21.4823 3.88002V3.88002ZM9.96231 13.18L3.58231 19.56C3.22964 19.9148 3.02272 20.3888 3.00236 20.8886C2.98199 21.3884 3.14967 21.8777 3.47231 22.26L3.58231 22.39L5.81231 24.62C5.96948 24.7748 6.17339 24.8732 6.39231 24.9L6.52231 24.91H11.4223L16.5523 19.78L9.96231 13.18V13.18ZM17.8323 5.36002L17.6923 5.46002L17.5623 5.59002L11.3823 11.77L17.9723 18.37L24.1623 12.17C24.515 11.8153 24.7219 11.3412 24.7423 10.8414C24.7626 10.3416 24.595 9.85229 24.2723 9.47002L24.1623 9.35002L20.3923 5.59002C20.0594 5.2585 19.6204 5.05477 19.1523 5.01454C18.6842 4.97431 18.2169 5.10016 17.8323 5.37002V5.36002Z" fill="#54469F"/>
</svg>
