<svg width="30" height="31" viewBox="0 0 30 31" fill="none" xmlns="http://www.w3.org/2000/svg">
<path d="M25.43 4.76C26.4287 5.74519 27.0065 7.07925 27.042 8.48167C27.0774 9.8841 26.5677 11.2456 25.62 12.28L25.44 12.48L11.94 25.96C11.7834 26.1197 11.5735 26.2162 11.3503 26.2309C11.1271 26.2457 10.9063 26.1777 10.73 26.04L10.63 25.96L5.56 20.88L4.97 25.22L8.22 24.78C8.66 24.73 9.06 24.98 9.22 25.36L9.25 25.47L9.27 25.58C9.33 26.05 9.03 26.49 8.57 26.61L8.47 26.63L4.02 27.23C3.87642 27.2489 3.73042 27.2344 3.59338 27.1875C3.45634 27.1407 3.33198 27.0628 3.23 26.96C3.06106 26.7861 2.96762 26.5525 2.97 26.31V26.18L3.97 18.78C3.99335 18.6191 4.0589 18.4673 4.16 18.34L4.24 18.25L17.71 4.76C18.2163 4.25204 18.8179 3.84901 19.4803 3.57401C20.1427 3.29901 20.8528 3.15746 21.57 3.15746C22.2872 3.15746 22.9973 3.29901 23.6597 3.57401C24.3221 3.84901 24.9237 4.25204 25.43 4.76ZM25.78 24.84C26.0452 24.84 26.2996 24.9454 26.4871 25.1329C26.6746 25.3204 26.78 25.5748 26.78 25.84C26.78 26.1052 26.6746 26.3596 26.4871 26.5471C26.2996 26.7346 26.0452 26.84 25.78 26.84H17.08C16.8148 26.84 16.5604 26.7346 16.3729 26.5471C16.1854 26.3596 16.08 26.1052 16.08 25.84C16.08 25.5748 16.1854 25.3204 16.3729 25.1329C16.5604 24.9454 16.8148 24.84 17.08 24.84H25.78ZM21.4 10.18L9.43 22.13L11.3 24L23.25 12.05L21.39 10.19L21.4 10.18ZM18.17 6.95L6.2 18.91L8.12 20.82L20.07 8.86L18.17 6.96V6.95ZM21.59 5.02C20.9 5.02 20.24 5.22 19.67 5.58L19.52 5.68L24.53 10.68L24.63 10.54C24.96 10.04 25.14 9.45 25.18 8.84L25.19 8.62C25.1927 8.1465 25.1013 7.67718 24.9214 7.23921C24.7414 6.80124 24.4763 6.40332 24.1415 6.0685C23.8067 5.73368 23.4088 5.46861 22.9708 5.28863C22.5328 5.10865 22.0635 5.01735 21.59 5.02V5.02Z" fill="#54469F"/>
</svg>
