<svg width="30" height="31" viewBox="0 0 30 31" fill="none" xmlns="http://www.w3.org/2000/svg">
<path d="M13.71 2.46C13.8907 2.62482 14.0048 2.85018 14.0306 3.09342C14.0564 3.33667 13.9921 3.58093 13.85 3.78L13.77 3.88L11.62 6.2L15.03 6.22C17.0078 6.22 18.9412 6.80649 20.5857 7.9053C22.2302 9.00412 23.5119 10.5659 24.2688 12.3932C25.0257 14.2204 25.2237 16.2311 24.8379 18.1709C24.452 20.1107 23.4996 21.8925 22.1011 23.2911C20.7025 24.6896 18.9207 25.642 16.9809 26.0279C15.0411 26.4137 13.0304 26.2157 11.2032 25.4588C9.3759 24.7019 7.81412 23.4202 6.7153 21.7757C5.61649 20.1312 5.03 18.1978 5.03 16.22C5.03 15.9548 5.13536 15.7004 5.32289 15.5129C5.51043 15.3254 5.76478 15.22 6.03 15.22C6.29522 15.22 6.54957 15.3254 6.73711 15.5129C6.92464 15.7004 7.03 15.9548 7.03 16.22C7.03077 17.7914 7.49432 19.3279 8.36282 20.6375C9.23131 21.9471 10.4663 22.972 11.9136 23.5841C13.3609 24.1963 14.9564 24.3686 16.5011 24.0797C18.0457 23.7907 19.471 23.0532 20.5992 21.9593C21.7273 20.8653 22.5083 19.4634 22.8446 17.9284C23.1809 16.3933 23.0578 14.7932 22.4904 13.3278C21.9231 11.8624 20.9367 10.5964 19.6544 9.68808C18.3721 8.77971 16.8507 8.26911 15.28 8.22H15.03L11.55 8.2L13.83 10.73C13.9917 10.9113 14.0819 11.1452 14.0837 11.3881C14.0856 11.631 13.9989 11.8663 13.84 12.05L13.75 12.15C13.5675 12.3103 13.3329 12.3987 13.09 12.3987C12.8471 12.3987 12.6125 12.3103 12.43 12.15L12.34 12.07L8.58 7.89C8.4278 7.72073 8.33791 7.50459 8.32518 7.27731C8.31245 7.05003 8.37765 6.82521 8.51 6.64L8.59 6.54L12.29 2.52C12.3789 2.42224 12.4864 2.34308 12.6061 2.28709C12.7258 2.23111 12.8554 2.19941 12.9875 2.19383C13.1195 2.18825 13.2514 2.2089 13.3754 2.25459C13.4994 2.30027 13.6131 2.37009 13.71 2.46V2.46Z" fill="#54469F"/>
</svg>
