<svg width="30" height="31" viewBox="0 0 30 31" fill="none" xmlns="http://www.w3.org/2000/svg">
<path d="M16.94 25.57C17.44 25.57 17.85 26.05 17.85 26.65C17.85 27.24 17.45 27.72 16.94 27.72H12.34C11.84 27.72 11.43 27.24 11.43 26.65C11.43 26.05 11.83 25.57 12.34 25.57H16.94ZM14.64 2C17.2056 2.01059 19.662 3.03924 21.4696 4.85993C23.2771 6.68062 24.288 9.14443 24.28 11.71C24.28 15.21 22.42 18.41 19.45 20.12C19.22 20.26 19.05 20.51 18.95 20.94C18.789 21.6498 18.3916 22.2839 17.8228 22.7382C17.2541 23.1924 16.5479 23.4399 15.82 23.44H13.14C12.3799 23.441 11.644 23.1721 11.0635 22.6814C10.483 22.1906 10.0955 21.5097 9.97002 20.76C9.89002 20.31 9.80002 20.11 9.85002 20.14C8.37245 19.2846 7.14627 18.0551 6.29486 16.5752C5.44345 15.0953 4.99685 13.4173 5.00002 11.71C5.00002 6.35 9.31002 2.01 14.64 2.01V2ZM14.64 4.15C13.6512 4.15393 12.6728 4.3526 11.7607 4.73465C10.8486 5.11671 10.0207 5.67467 9.32427 6.37668C8.62783 7.07869 8.07648 7.91101 7.70171 8.8261C7.32693 9.74119 7.13607 10.7211 7.14002 11.71C7.13702 13.0407 7.48486 14.3487 8.14849 15.5022C8.81212 16.6556 9.76808 17.6138 10.92 18.28C11.57 18.66 11.91 19.38 12.08 20.4C12.18 20.91 12.62 21.29 13.14 21.29H15.82C16.32 21.29 16.76 20.94 16.87 20.46C17.1 19.48 17.6 18.73 18.37 18.27C19.5186 17.6033 20.4716 16.6462 21.1334 15.4948C21.7951 14.3433 22.1423 13.0381 22.14 11.71C22.1453 9.71464 21.3585 7.79876 19.9522 6.38315C18.546 4.96753 16.6354 4.16794 14.64 4.16V4.15Z" fill="#54469F"/>
</svg>
